<mxfile host="app.diagrams.net" modified="2023-12-02T13:39:00.807Z" agent="Mozilla/5.0 (Windows NT 10.0; Win64; x64) AppleWebKit/537.36 (KHTML, like Gecko) Chrome/119.0.0.0 Safari/537.36" etag="PU8JITebhOUxx-wwpUDJ" version="22.1.5" type="github">
  <diagram id="C5RBs43oDa-KdzZeNtuy" name="Page-1">
    <mxGraphModel dx="1050" dy="566" grid="1" gridSize="10" guides="1" tooltips="1" connect="1" arrows="1" fold="1" page="1" pageScale="1" pageWidth="827" pageHeight="1169" math="0" shadow="0">
      <root>
        <mxCell id="WIyWlLk6GJQsqaUBKTNV-0" />
        <mxCell id="WIyWlLk6GJQsqaUBKTNV-1" parent="WIyWlLk6GJQsqaUBKTNV-0" />
        <mxCell id="SPXnSW7W5VmlwohRPFWz-24" style="edgeStyle=orthogonalEdgeStyle;rounded=0;orthogonalLoop=1;jettySize=auto;html=1;exitX=0.25;exitY=1;exitDx=0;exitDy=0;endArrow=diamond;endFill=1;" edge="1" parent="WIyWlLk6GJQsqaUBKTNV-1" source="SPXnSW7W5VmlwohRPFWz-8" target="SPXnSW7W5VmlwohRPFWz-9">
          <mxGeometry relative="1" as="geometry" />
        </mxCell>
        <mxCell id="SPXnSW7W5VmlwohRPFWz-60" value="1..*" style="edgeLabel;html=1;align=center;verticalAlign=middle;resizable=0;points=[];" vertex="1" connectable="0" parent="SPXnSW7W5VmlwohRPFWz-24">
          <mxGeometry x="-0.9117" relative="1" as="geometry">
            <mxPoint as="offset" />
          </mxGeometry>
        </mxCell>
        <mxCell id="SPXnSW7W5VmlwohRPFWz-61" value="1..*" style="edgeLabel;html=1;align=center;verticalAlign=middle;resizable=0;points=[];" vertex="1" connectable="0" parent="SPXnSW7W5VmlwohRPFWz-24">
          <mxGeometry x="0.8705" y="1" relative="1" as="geometry">
            <mxPoint as="offset" />
          </mxGeometry>
        </mxCell>
        <mxCell id="SPXnSW7W5VmlwohRPFWz-26" style="edgeStyle=orthogonalEdgeStyle;rounded=0;orthogonalLoop=1;jettySize=auto;html=1;exitX=0.75;exitY=1;exitDx=0;exitDy=0;entryX=0.5;entryY=0;entryDx=0;entryDy=0;endArrow=diamond;endFill=1;" edge="1" parent="WIyWlLk6GJQsqaUBKTNV-1" source="SPXnSW7W5VmlwohRPFWz-8" target="SPXnSW7W5VmlwohRPFWz-22">
          <mxGeometry relative="1" as="geometry" />
        </mxCell>
        <mxCell id="SPXnSW7W5VmlwohRPFWz-64" value="1..*" style="edgeLabel;html=1;align=center;verticalAlign=middle;resizable=0;points=[];" vertex="1" connectable="0" parent="SPXnSW7W5VmlwohRPFWz-26">
          <mxGeometry x="-0.876" y="-1" relative="1" as="geometry">
            <mxPoint as="offset" />
          </mxGeometry>
        </mxCell>
        <mxCell id="SPXnSW7W5VmlwohRPFWz-65" value="1..*" style="edgeLabel;html=1;align=center;verticalAlign=middle;resizable=0;points=[];" vertex="1" connectable="0" parent="SPXnSW7W5VmlwohRPFWz-26">
          <mxGeometry x="0.7917" y="-2" relative="1" as="geometry">
            <mxPoint as="offset" />
          </mxGeometry>
        </mxCell>
        <mxCell id="SPXnSW7W5VmlwohRPFWz-8" value="&lt;p style=&quot;margin:0px;margin-top:4px;text-align:center;&quot;&gt;Disease Prediction System&lt;br&gt;&lt;/p&gt;&lt;hr size=&quot;1&quot;&gt;&lt;p style=&quot;margin: 0px; line-height: 100%;&quot;&gt;- users: string&lt;/p&gt;&lt;p style=&quot;margin:0px;margin-left:4px;&quot;&gt;&lt;br/&gt;&lt;/p&gt;&lt;p style=&quot;margin: 0px; line-height: 100%;&quot;&gt;&lt;span style=&quot;font-family:&#39;Arial&#39;; font-size:9.6pt; color:#191919; background-color:transparent;&quot;&gt;- Disease: string&lt;/span&gt;&lt;/p&gt;&lt;hr size=&quot;1&quot;&gt;&lt;p style=&quot;margin: 0px; line-height: 100%;&quot;&gt;+Add user()&lt;/p&gt;&lt;p style=&quot;margin: 0px; line-height: 100%;&quot;&gt;&lt;span style=&quot;font-family:&#39;Arial&#39;; font-size:9.6pt; color:#191919; background-color:transparent;&quot;&gt;+ Remove user()&lt;/span&gt;&lt;/p&gt;&lt;p style=&quot;margin: 0px; line-height: 100%;&quot;&gt;&lt;span style=&quot;font-family:&#39;Arial&#39;; font-size:9.6pt; color:#191919; background-color:transparent;&quot;&gt;+Add disease()&lt;/span&gt;&lt;/p&gt;&lt;p style=&quot;margin: 0px; line-height: 100%;&quot;&gt;&lt;span style=&quot;font-family:&#39;Arial&#39;; font-size:9.6pt; color:#191919; background-color:transparent;&quot;&gt;+ Remove disease()&lt;/span&gt;&lt;/p&gt;&lt;p style=&quot;margin:0px;margin-left:4px;&quot;&gt;&lt;br/&gt;&lt;br/&gt;&lt;br/&gt;&lt;br/&gt;&lt;/p&gt;&lt;p style=&quot;margin: 0px; line-height: 100%;&quot;&gt;&lt;span style=&quot;font-family:&#39;Arial&#39;; font-size:9.6pt; color:#191919; background-color:transparent;&quot;&gt;+ Make prediction()&lt;/span&gt;&lt;/p&gt;" style="verticalAlign=top;align=left;overflow=fill;fontSize=12;fontFamily=Helvetica;html=1;whiteSpace=wrap;" vertex="1" parent="WIyWlLk6GJQsqaUBKTNV-1">
          <mxGeometry x="320" y="10" width="156" height="140" as="geometry" />
        </mxCell>
        <mxCell id="SPXnSW7W5VmlwohRPFWz-59" style="edgeStyle=orthogonalEdgeStyle;rounded=0;orthogonalLoop=1;jettySize=auto;html=1;exitX=0.5;exitY=1;exitDx=0;exitDy=0;entryX=0;entryY=0.25;entryDx=0;entryDy=0;endArrow=none;endFill=0;" edge="1" parent="WIyWlLk6GJQsqaUBKTNV-1" source="SPXnSW7W5VmlwohRPFWz-9" target="SPXnSW7W5VmlwohRPFWz-41">
          <mxGeometry relative="1" as="geometry" />
        </mxCell>
        <mxCell id="SPXnSW7W5VmlwohRPFWz-70" value="1..*" style="edgeLabel;html=1;align=center;verticalAlign=middle;resizable=0;points=[];" vertex="1" connectable="0" parent="SPXnSW7W5VmlwohRPFWz-59">
          <mxGeometry x="0.9059" y="-4" relative="1" as="geometry">
            <mxPoint as="offset" />
          </mxGeometry>
        </mxCell>
        <mxCell id="SPXnSW7W5VmlwohRPFWz-71" value="1..*" style="edgeLabel;html=1;align=center;verticalAlign=middle;resizable=0;points=[];" vertex="1" connectable="0" parent="SPXnSW7W5VmlwohRPFWz-59">
          <mxGeometry x="-0.8924" y="4" relative="1" as="geometry">
            <mxPoint as="offset" />
          </mxGeometry>
        </mxCell>
        <mxCell id="SPXnSW7W5VmlwohRPFWz-74" style="edgeStyle=orthogonalEdgeStyle;rounded=0;orthogonalLoop=1;jettySize=auto;html=1;exitX=1;exitY=0.25;exitDx=0;exitDy=0;endArrow=none;endFill=0;" edge="1" parent="WIyWlLk6GJQsqaUBKTNV-1" source="SPXnSW7W5VmlwohRPFWz-9" target="SPXnSW7W5VmlwohRPFWz-11">
          <mxGeometry relative="1" as="geometry" />
        </mxCell>
        <mxCell id="SPXnSW7W5VmlwohRPFWz-78" value="1" style="edgeLabel;html=1;align=center;verticalAlign=middle;resizable=0;points=[];" vertex="1" connectable="0" parent="SPXnSW7W5VmlwohRPFWz-74">
          <mxGeometry x="-0.7316" y="4" relative="1" as="geometry">
            <mxPoint as="offset" />
          </mxGeometry>
        </mxCell>
        <mxCell id="SPXnSW7W5VmlwohRPFWz-79" value="1..*" style="edgeLabel;html=1;align=center;verticalAlign=middle;resizable=0;points=[];" vertex="1" connectable="0" parent="SPXnSW7W5VmlwohRPFWz-74">
          <mxGeometry x="0.8141" y="2" relative="1" as="geometry">
            <mxPoint y="1" as="offset" />
          </mxGeometry>
        </mxCell>
        <mxCell id="SPXnSW7W5VmlwohRPFWz-9" value="&lt;p style=&quot;margin:0px;margin-top:4px;text-align:center;&quot;&gt;Disease&lt;br&gt;&lt;/p&gt;&lt;hr size=&quot;1&quot;&gt;&lt;p style=&quot;margin: 0px; line-height: 100%;&quot;&gt;- Disease Name: string&lt;/p&gt;&lt;p style=&quot;margin: 0px; line-height: 100%;&quot;&gt;&lt;span style=&quot;font-family:&#39;Arial&#39;; font-size:9.6pt; color:#191919; background-color:transparent;&quot;&gt;&lt;br&gt;&lt;/span&gt;&lt;/p&gt;&lt;p style=&quot;margin: 0px; line-height: 100%;&quot;&gt;&lt;span style=&quot;font-family:&#39;Arial&#39;; font-size:9.6pt; color:#191919; background-color:transparent;&quot;&gt;- Description: string&lt;/span&gt;&lt;/p&gt;&lt;p style=&quot;margin: 0px; line-height: 100%;&quot;&gt;&lt;span style=&quot;font-family:&#39;Arial&#39;; font-size:9.6pt; color:#191919; background-color:transparent;&quot;&gt;&lt;br&gt;&lt;/span&gt;&lt;/p&gt;&lt;p style=&quot;margin: 0px; line-height: 100%;&quot;&gt;&lt;span style=&quot;font-family:&#39;Arial&#39;; font-size:9.6pt; color:#191919; background-color:transparent;&quot;&gt;- Symptoms: string&lt;/span&gt;&lt;/p&gt;&lt;hr size=&quot;1&quot;&gt;&lt;p style=&quot;margin: 0px; line-height: 100%;&quot;&gt;+Add Symptom()&lt;/p&gt;&lt;p style=&quot;margin:0px;margin-left:4px;&quot;&gt;&lt;br&gt;&lt;/p&gt;&lt;p style=&quot;margin: 0px; line-height: 100%;&quot;&gt;&lt;span style=&quot;font-family:&#39;Arial&#39;; font-size:9.6pt; color:#191919;&quot;&gt;+ Remove Symptom()&lt;/span&gt;&lt;/p&gt;" style="verticalAlign=top;align=left;overflow=fill;fontSize=12;fontFamily=Helvetica;html=1;whiteSpace=wrap;" vertex="1" parent="WIyWlLk6GJQsqaUBKTNV-1">
          <mxGeometry x="20" y="240" width="190" height="155" as="geometry" />
        </mxCell>
        <mxCell id="SPXnSW7W5VmlwohRPFWz-46" style="edgeStyle=orthogonalEdgeStyle;rounded=0;orthogonalLoop=1;jettySize=auto;html=1;exitX=0.5;exitY=1;exitDx=0;exitDy=0;entryX=0.5;entryY=0;entryDx=0;entryDy=0;endArrow=diamond;endFill=1;" edge="1" parent="WIyWlLk6GJQsqaUBKTNV-1" source="SPXnSW7W5VmlwohRPFWz-11" target="SPXnSW7W5VmlwohRPFWz-35">
          <mxGeometry relative="1" as="geometry" />
        </mxCell>
        <mxCell id="SPXnSW7W5VmlwohRPFWz-58" style="edgeStyle=orthogonalEdgeStyle;rounded=0;orthogonalLoop=1;jettySize=auto;html=1;exitX=0.75;exitY=1;exitDx=0;exitDy=0;entryX=0.75;entryY=0;entryDx=0;entryDy=0;endArrow=none;endFill=0;" edge="1" parent="WIyWlLk6GJQsqaUBKTNV-1" source="SPXnSW7W5VmlwohRPFWz-11" target="SPXnSW7W5VmlwohRPFWz-41">
          <mxGeometry relative="1" as="geometry" />
        </mxCell>
        <mxCell id="SPXnSW7W5VmlwohRPFWz-68" value="1..*" style="edgeLabel;html=1;align=center;verticalAlign=middle;resizable=0;points=[];" vertex="1" connectable="0" parent="SPXnSW7W5VmlwohRPFWz-58">
          <mxGeometry x="0.8645" y="-3" relative="1" as="geometry">
            <mxPoint as="offset" />
          </mxGeometry>
        </mxCell>
        <mxCell id="SPXnSW7W5VmlwohRPFWz-69" value="1..*" style="edgeLabel;html=1;align=center;verticalAlign=middle;resizable=0;points=[];" vertex="1" connectable="0" parent="SPXnSW7W5VmlwohRPFWz-58">
          <mxGeometry x="-0.8069" relative="1" as="geometry">
            <mxPoint as="offset" />
          </mxGeometry>
        </mxCell>
        <mxCell id="SPXnSW7W5VmlwohRPFWz-77" style="edgeStyle=orthogonalEdgeStyle;rounded=0;orthogonalLoop=1;jettySize=auto;html=1;exitX=1;exitY=0.5;exitDx=0;exitDy=0;entryX=0;entryY=0.5;entryDx=0;entryDy=0;endArrow=none;endFill=0;" edge="1" parent="WIyWlLk6GJQsqaUBKTNV-1" source="SPXnSW7W5VmlwohRPFWz-11" target="SPXnSW7W5VmlwohRPFWz-22">
          <mxGeometry relative="1" as="geometry" />
        </mxCell>
        <mxCell id="SPXnSW7W5VmlwohRPFWz-80" value="1..*" style="edgeLabel;html=1;align=center;verticalAlign=middle;resizable=0;points=[];" vertex="1" connectable="0" parent="SPXnSW7W5VmlwohRPFWz-77">
          <mxGeometry x="-0.6308" y="-3" relative="1" as="geometry">
            <mxPoint y="1" as="offset" />
          </mxGeometry>
        </mxCell>
        <mxCell id="SPXnSW7W5VmlwohRPFWz-81" value="1..*" style="edgeLabel;html=1;align=center;verticalAlign=middle;resizable=0;points=[];" vertex="1" connectable="0" parent="SPXnSW7W5VmlwohRPFWz-77">
          <mxGeometry x="0.7933" y="3" relative="1" as="geometry">
            <mxPoint as="offset" />
          </mxGeometry>
        </mxCell>
        <mxCell id="SPXnSW7W5VmlwohRPFWz-11" value="&lt;p style=&quot;margin:0px;margin-top:4px;text-align:center;&quot;&gt;Symptoms&lt;br&gt;&lt;/p&gt;&lt;hr size=&quot;1&quot;&gt;&lt;p style=&quot;margin: 0px; line-height: 100%;&quot;&gt;- Symptoms Name: string&lt;/p&gt;&lt;p style=&quot;margin: 0px; line-height: 100%;&quot;&gt;&lt;span style=&quot;font-family:&#39;Arial&#39;; font-size:9.6pt; color:#191919; background-color:transparent;&quot;&gt;- Description: string&lt;/span&gt;&lt;/p&gt;&lt;p style=&quot;margin: 0px; line-height: 100%;&quot;&gt;&lt;span style=&quot;font-family:&#39;Arial&#39;; font-size:9.6pt; color:#191919; background-color:transparent;&quot;&gt;- Type: string&lt;/span&gt;&lt;/p&gt;&lt;hr size=&quot;1&quot;&gt;&lt;p style=&quot;margin:0px;margin-left:4px;&quot;&gt;+ Set Type()&lt;br&gt;&lt;/p&gt;" style="verticalAlign=top;align=left;overflow=fill;fontSize=12;fontFamily=Helvetica;html=1;whiteSpace=wrap;" vertex="1" parent="WIyWlLk6GJQsqaUBKTNV-1">
          <mxGeometry x="340" y="290" width="160" height="105" as="geometry" />
        </mxCell>
        <mxCell id="SPXnSW7W5VmlwohRPFWz-57" style="edgeStyle=orthogonalEdgeStyle;rounded=0;orthogonalLoop=1;jettySize=auto;html=1;exitX=0.5;exitY=1;exitDx=0;exitDy=0;entryX=1;entryY=0.25;entryDx=0;entryDy=0;endArrow=none;endFill=0;" edge="1" parent="WIyWlLk6GJQsqaUBKTNV-1" source="SPXnSW7W5VmlwohRPFWz-22" target="SPXnSW7W5VmlwohRPFWz-41">
          <mxGeometry relative="1" as="geometry" />
        </mxCell>
        <mxCell id="SPXnSW7W5VmlwohRPFWz-66" value="1..*" style="edgeLabel;html=1;align=center;verticalAlign=middle;resizable=0;points=[];" vertex="1" connectable="0" parent="SPXnSW7W5VmlwohRPFWz-57">
          <mxGeometry x="0.83" y="-2" relative="1" as="geometry">
            <mxPoint as="offset" />
          </mxGeometry>
        </mxCell>
        <mxCell id="SPXnSW7W5VmlwohRPFWz-67" value="1..*" style="edgeLabel;html=1;align=center;verticalAlign=middle;resizable=0;points=[];" vertex="1" connectable="0" parent="SPXnSW7W5VmlwohRPFWz-57">
          <mxGeometry x="-0.799" y="-2" relative="1" as="geometry">
            <mxPoint as="offset" />
          </mxGeometry>
        </mxCell>
        <mxCell id="SPXnSW7W5VmlwohRPFWz-22" value="&lt;p style=&quot;margin:0px;margin-top:4px;text-align:center;&quot;&gt;Tests&lt;br&gt;&lt;/p&gt;&lt;hr size=&quot;1&quot;&gt;&lt;p style=&quot;margin: 0px; line-height: 100%;&quot;&gt;- Name: string&lt;/p&gt;&lt;p style=&quot;margin: 0px; line-height: 100%;&quot;&gt;&lt;span style=&quot;font-family:&#39;Arial&#39;; font-size:9.6pt; color:#191919; background-color:transparent;&quot;&gt;&lt;br&gt;&lt;/span&gt;&lt;/p&gt;&lt;p style=&quot;margin: 0px; line-height: 100%;&quot;&gt;&lt;span style=&quot;font-family:&#39;Arial&#39;; font-size:9.6pt; color:#191919; background-color:transparent;&quot;&gt;- Info: string&lt;/span&gt;&lt;/p&gt;&lt;p style=&quot;margin: 0px; line-height: 100%;&quot;&gt;&lt;span style=&quot;font-family:&#39;Arial&#39;; font-size:9.6pt; color:#191919; background-color:transparent;&quot;&gt;&lt;br&gt;&lt;/span&gt;&lt;/p&gt;&lt;p style=&quot;margin: 0px; line-height: 100%;&quot;&gt;&lt;span style=&quot;font-family:&#39;Arial&#39;; font-size:9.6pt; color:#191919; background-color:transparent;&quot;&gt;- Type: string&lt;/span&gt;&lt;/p&gt;&lt;p style=&quot;margin: 0px; line-height: 100%;&quot;&gt;&lt;span style=&quot;font-family:&#39;Arial&#39;; font-size:9.6pt; color:#191919; background-color:transparent;&quot;&gt;&lt;br&gt;&lt;/span&gt;&lt;/p&gt;&lt;p style=&quot;margin: 0px; line-height: 100%;&quot;&gt;&lt;span style=&quot;font-family:&#39;Arial&#39;; font-size:9.6pt; color:#191919; background-color:transparent;&quot;&gt;- date: date&lt;/span&gt;&lt;/p&gt;&lt;p style=&quot;margin: 0px; line-height: 100%;&quot;&gt;&lt;span style=&quot;font-family:&#39;Arial&#39;; font-size:9.6pt; color:#191919; background-color:transparent;&quot;&gt;&lt;br&gt;&lt;/span&gt;&lt;/p&gt;&lt;p style=&quot;margin: 0px; line-height: 100%;&quot;&gt;&lt;span style=&quot;font-family:&#39;Arial&#39;; font-size:9.6pt; color:#191919; background-color:transparent;&quot;&gt;- Result: string&lt;/span&gt;&lt;/p&gt;&lt;hr size=&quot;1&quot;&gt;&lt;p style=&quot;margin: 0px; line-height: 100%;&quot;&gt;+ Add test()&lt;/p&gt;&lt;p style=&quot;margin:0px;margin-left:4px;&quot;&gt;&lt;br&gt;&lt;/p&gt;&lt;p style=&quot;margin: 0px; line-height: 100%;&quot;&gt;&lt;span style=&quot;font-family:&#39;Arial&#39;; font-size:9.6pt; color:#191919;&quot;&gt;+ Remove test()&lt;/span&gt;&lt;/p&gt;" style="verticalAlign=top;align=left;overflow=fill;fontSize=12;fontFamily=Helvetica;html=1;whiteSpace=wrap;" vertex="1" parent="WIyWlLk6GJQsqaUBKTNV-1">
          <mxGeometry x="680" y="200" width="200" height="200" as="geometry" />
        </mxCell>
        <mxCell id="SPXnSW7W5VmlwohRPFWz-25" style="edgeStyle=orthogonalEdgeStyle;rounded=0;orthogonalLoop=1;jettySize=auto;html=1;exitX=0.5;exitY=1;exitDx=0;exitDy=0;entryX=0.558;entryY=-0.003;entryDx=0;entryDy=0;entryPerimeter=0;endArrow=diamond;endFill=1;" edge="1" parent="WIyWlLk6GJQsqaUBKTNV-1" source="SPXnSW7W5VmlwohRPFWz-8" target="SPXnSW7W5VmlwohRPFWz-11">
          <mxGeometry relative="1" as="geometry" />
        </mxCell>
        <mxCell id="SPXnSW7W5VmlwohRPFWz-62" value="1..*" style="edgeLabel;html=1;align=center;verticalAlign=middle;resizable=0;points=[];" vertex="1" connectable="0" parent="SPXnSW7W5VmlwohRPFWz-25">
          <mxGeometry x="-0.769" relative="1" as="geometry">
            <mxPoint as="offset" />
          </mxGeometry>
        </mxCell>
        <mxCell id="SPXnSW7W5VmlwohRPFWz-63" value="1..*" style="edgeLabel;html=1;align=center;verticalAlign=middle;resizable=0;points=[];" vertex="1" connectable="0" parent="SPXnSW7W5VmlwohRPFWz-25">
          <mxGeometry x="0.6105" y="-2" relative="1" as="geometry">
            <mxPoint as="offset" />
          </mxGeometry>
        </mxCell>
        <mxCell id="SPXnSW7W5VmlwohRPFWz-35" value="&lt;p style=&quot;margin:0px;margin-top:4px;text-align:center;&quot;&gt;Symptom Type&lt;br&gt;&lt;/p&gt;&lt;hr size=&quot;1&quot;&gt;&lt;p style=&quot;margin: 0px; line-height: 100%;&quot;&gt;- TypeID: string&lt;/p&gt;&lt;p style=&quot;margin: 0px; line-height: 100%;&quot;&gt;&lt;span style=&quot;font-family:&#39;Arial&#39;; font-size:9.6pt; color:#191919; background-color:transparent;&quot;&gt;&lt;br&gt;&lt;/span&gt;&lt;/p&gt;&lt;p style=&quot;margin: 0px; line-height: 100%;&quot;&gt;&lt;span style=&quot;font-family:&#39;Arial&#39;; font-size:9.6pt; color:#191919; background-color:transparent;&quot;&gt;- Name: string&lt;/span&gt;&lt;/p&gt;&lt;p style=&quot;margin: 0px; line-height: 100%;&quot;&gt;&lt;span style=&quot;font-family:&#39;Arial&#39;; font-size:9.6pt; color:#191919;&quot;&gt;&lt;br&gt;&lt;/span&gt;&lt;/p&gt;&lt;p style=&quot;margin: 0px; line-height: 100%;&quot;&gt;&lt;span style=&quot;font-family:&#39;Arial&#39;; font-size:9.6pt; color:#191919;&quot;&gt;+ Set Type Name()&lt;/span&gt;&lt;/p&gt;" style="verticalAlign=top;align=left;overflow=fill;fontSize=12;fontFamily=Helvetica;html=1;whiteSpace=wrap;" vertex="1" parent="WIyWlLk6GJQsqaUBKTNV-1">
          <mxGeometry x="220" y="440" width="160" height="100" as="geometry" />
        </mxCell>
        <mxCell id="SPXnSW7W5VmlwohRPFWz-40" value="" style="endArrow=none;html=1;rounded=0;exitX=0.5;exitY=0;exitDx=0;exitDy=0;dashed=1;endFill=0;strokeColor=none;startArrow=open;startFill=0;" edge="1" parent="WIyWlLk6GJQsqaUBKTNV-1" source="SPXnSW7W5VmlwohRPFWz-35">
          <mxGeometry width="50" height="50" relative="1" as="geometry">
            <mxPoint x="364" y="400" as="sourcePoint" />
            <mxPoint x="414" y="350" as="targetPoint" />
          </mxGeometry>
        </mxCell>
        <mxCell id="SPXnSW7W5VmlwohRPFWz-52" style="edgeStyle=orthogonalEdgeStyle;rounded=0;orthogonalLoop=1;jettySize=auto;html=1;exitX=1;exitY=0.25;exitDx=0;exitDy=0;entryX=0.5;entryY=0;entryDx=0;entryDy=0;endArrow=diamond;endFill=1;" edge="1" parent="WIyWlLk6GJQsqaUBKTNV-1">
          <mxGeometry relative="1" as="geometry">
            <mxPoint x="570" y="780" as="sourcePoint" />
            <mxPoint x="730" y="940" as="targetPoint" />
          </mxGeometry>
        </mxCell>
        <mxCell id="SPXnSW7W5VmlwohRPFWz-41" value="&lt;p style=&quot;margin:0px;margin-top:4px;text-align:center;&quot;&gt;User&lt;br&gt;&lt;/p&gt;&lt;hr size=&quot;1&quot;&gt;&lt;p style=&quot;margin: 0px; line-height: 100%;&quot;&gt;- userID: int&lt;/p&gt;&lt;p style=&quot;margin: 0px; line-height: 100%;&quot;&gt;&lt;span style=&quot;font-family:&#39;Arial&#39;; font-size:9.6pt; color:#191919; background-color:transparent;&quot;&gt;&lt;br&gt;&lt;/span&gt;&lt;/p&gt;&lt;p style=&quot;margin: 0px; line-height: 100%;&quot;&gt;&lt;span style=&quot;font-family:&#39;Arial&#39;; font-size:9.6pt; color:#191919; background-color:transparent;&quot;&gt;- Personal Info:Personal information&lt;/span&gt;&lt;/p&gt;&lt;p style=&quot;margin: 0px; line-height: 100%;&quot;&gt;&lt;span style=&quot;background-color: transparent; color: rgb(25, 25, 25); font-family: Arial; font-size: 9.6pt;&quot;&gt;&lt;br&gt;&lt;/span&gt;&lt;/p&gt;&lt;p style=&quot;margin: 0px; line-height: 100%;&quot;&gt;&lt;span style=&quot;background-color: transparent; color: rgb(25, 25, 25); font-family: Arial; font-size: 9.6pt;&quot;&gt;- Medical History: string&lt;/span&gt;&lt;br&gt;&lt;/p&gt;&lt;p style=&quot;margin: 0px; line-height: 100%;&quot;&gt;&lt;span style=&quot;font-family:&#39;Arial&#39;; font-size:9.6pt; color:#191919; background-color:transparent;&quot;&gt;&lt;br&gt;&lt;/span&gt;&lt;/p&gt;&lt;p style=&quot;margin: 0px; line-height: 100%;&quot;&gt;&lt;span style=&quot;font-family:&#39;Arial&#39;; font-size:9.6pt; color:#191919; background-color:transparent;&quot;&gt;- Contact Info: Contact Information  &lt;/span&gt;&lt;/p&gt;&lt;p style=&quot;margin: 0px; line-height: 100%;&quot;&gt;&lt;span style=&quot;font-family:&#39;Arial&#39;; font-size:9.6pt; color:#191919; background-color:transparent;&quot;&gt;&lt;br&gt;&lt;/span&gt;&lt;/p&gt;&lt;p style=&quot;margin: 0px; line-height: 100%;&quot;&gt;&lt;span style=&quot;font-family:&#39;Arial&#39;; font-size:9.6pt; color:#191919; background-color:transparent;&quot;&gt;- Symptoms: string&lt;/span&gt;&lt;/p&gt;&lt;p style=&quot;margin:0px;margin-left:4px;&quot;&gt;&lt;br&gt;&lt;/p&gt;&lt;p style=&quot;margin: 0px; line-height: 100%;&quot;&gt;&lt;span style=&quot;font-family:&#39;Arial&#39;; font-size:9.6pt; color:#191919; background-color:transparent;&quot;&gt;- tests: string&lt;/span&gt;&lt;/p&gt;&lt;hr size=&quot;1&quot;&gt;&lt;p style=&quot;margin: 0px; line-height: 100%;&quot;&gt;+ Update profile()&lt;/p&gt;&lt;p style=&quot;margin: 0px; line-height: 100%;&quot;&gt;&lt;span style=&quot;font-family:&#39;Arial&#39;; font-size:9.6pt; color:#191919; background-color:transparent;&quot;&gt;&lt;br&gt;&lt;/span&gt;&lt;/p&gt;&lt;p style=&quot;margin: 0px; line-height: 100%;&quot;&gt;&lt;span style=&quot;font-family:&#39;Arial&#39;; font-size:9.6pt; color:#191919; background-color:transparent;&quot;&gt;+ Predict disease()&lt;/span&gt;&lt;/p&gt;&lt;p style=&quot;margin:0px;margin-left:4px;&quot;&gt;&lt;br&gt;&lt;br&gt;&lt;/p&gt;&lt;p style=&quot;margin: 0px; line-height: 100%; font-family: Arial; font-size: 9.6pt; color: rgb(25, 25, 25);&quot;&gt;&lt;br&gt;&lt;/p&gt;" style="verticalAlign=top;align=left;overflow=fill;fontSize=12;fontFamily=Helvetica;html=1;whiteSpace=wrap;" vertex="1" parent="WIyWlLk6GJQsqaUBKTNV-1">
          <mxGeometry x="350" y="690" width="220" height="240" as="geometry" />
        </mxCell>
        <mxCell id="SPXnSW7W5VmlwohRPFWz-42" value="&lt;p style=&quot;margin: 0px; line-height: 100%;&quot; align=&quot;center&quot;&gt;&lt;br&gt;&lt;/p&gt;&lt;p style=&quot;margin: 0px; line-height: 100%;&quot; align=&quot;center&quot;&gt;Personal information&lt;/p&gt;&lt;p style=&quot;margin:0px;margin-top:4px;text-align:center;&quot;&gt;&lt;br&gt;&lt;/p&gt;&lt;p style=&quot;margin: 0px; line-height: 100%; font-family: Arial; font-size: 9.6pt; color: rgb(25, 25, 25);&quot; align=&quot;center&quot;&gt;&lt;br&gt;&lt;/p&gt;&lt;hr size=&quot;1&quot;&gt;&lt;p style=&quot;margin: 0px; line-height: 100%;&quot;&gt;- First Name: string&lt;/p&gt;&lt;p style=&quot;margin: 0px; line-height: 100%;&quot;&gt;&lt;br&gt;&lt;/p&gt;&lt;p style=&quot;margin: 0px; line-height: 100%;&quot;&gt;&lt;span style=&quot;font-family:&#39;Arial&#39;; font-size:9.6pt; color:#191919; background-color:transparent;&quot;&gt;- Last Name: string&lt;/span&gt;&lt;/p&gt;&lt;p style=&quot;margin: 0px; line-height: 100%;&quot;&gt;&lt;span style=&quot;font-family:&#39;Arial&#39;; font-size:9.6pt; color:#191919; background-color:transparent;&quot;&gt;&lt;br&gt;&lt;/span&gt;&lt;/p&gt;&lt;p style=&quot;margin: 0px; line-height: 100%;&quot;&gt;&lt;span style=&quot;font-family:&#39;Arial&#39;; font-size:9.6pt; color:#191919; background-color:transparent;&quot;&gt;- Age: int&lt;/span&gt;&lt;/p&gt;&lt;p style=&quot;margin: 0px; line-height: 100%;&quot;&gt;&lt;span style=&quot;font-family:&#39;Arial&#39;; font-size:9.6pt; color:#191919; background-color:transparent;&quot;&gt;&lt;br&gt;&lt;/span&gt;&lt;/p&gt;&lt;p style=&quot;margin: 0px; line-height: 100%;&quot;&gt;&lt;span style=&quot;font-family:&#39;Arial&#39;; font-size:9.6pt; color:#191919; background-color:transparent;&quot;&gt;- Gender: string&lt;/span&gt;&lt;/p&gt;&lt;p style=&quot;margin: 0px; line-height: 100%;&quot;&gt;&lt;span style=&quot;font-family:&#39;Arial&#39;; font-size:9.6pt; color:#191919; background-color:transparent;&quot;&gt;&lt;br&gt;&lt;/span&gt;&lt;/p&gt;&lt;p style=&quot;margin: 0px; line-height: 100%;&quot;&gt;&lt;span style=&quot;font-family:&#39;Arial&#39;; font-size:9.6pt; color:#191919; background-color:transparent;&quot;&gt;- Contact Info: Contact Information&lt;/span&gt;&lt;/p&gt;&lt;p style=&quot;margin: 0px; line-height: 100%; font-family: Arial; font-size: 9.6pt; color: rgb(25, 25, 25);&quot;&gt;&lt;br&gt;&lt;/p&gt;&lt;hr size=&quot;1&quot;&gt;&lt;p style=&quot;margin: 0px; line-height: 100%;&quot;&gt;+ Set age()&lt;/p&gt;&lt;p style=&quot;margin:0px;margin-left:4px;&quot;&gt;&lt;br/&gt;&lt;/p&gt;&lt;p style=&quot;margin: 0px; line-height: 100%;&quot;&gt;&lt;span style=&quot;font-family:&#39;Arial&#39;; font-size:9.6pt; color:#191919; background-color:transparent;&quot;&gt;&lt;br&gt;&lt;/span&gt;&lt;/p&gt;&lt;p style=&quot;margin: 0px; line-height: 100%;&quot;&gt;&lt;span style=&quot;font-family:&#39;Arial&#39;; font-size:9.6pt; color:#191919; background-color:transparent;&quot;&gt;+ Set gender()&lt;/span&gt;&lt;/p&gt;" style="verticalAlign=top;align=left;overflow=fill;fontSize=12;fontFamily=Helvetica;html=1;whiteSpace=wrap;" vertex="1" parent="WIyWlLk6GJQsqaUBKTNV-1">
          <mxGeometry x="50" y="800" width="200" height="270" as="geometry" />
        </mxCell>
        <mxCell id="SPXnSW7W5VmlwohRPFWz-43" value="&lt;p style=&quot;margin:0px;margin-top:4px;text-align:center;&quot;&gt;Contact information&lt;br&gt;&lt;/p&gt;&lt;hr size=&quot;1&quot;&gt;&lt;p style=&quot;margin: 0px; line-height: 100%;&quot;&gt;- Email: string&lt;/p&gt;&lt;p style=&quot;margin: 0px; line-height: 100%;&quot;&gt;&lt;span style=&quot;font-family:&#39;Arial&#39;; font-size:9.6pt; color:#191919; background-color:transparent;&quot;&gt;&lt;br&gt;&lt;/span&gt;&lt;/p&gt;&lt;p style=&quot;margin: 0px; line-height: 100%;&quot;&gt;&lt;span style=&quot;font-family:&#39;Arial&#39;; font-size:9.6pt; color:#191919; background-color:transparent;&quot;&gt;- Phone Number:int&lt;/span&gt;&lt;/p&gt;&lt;p style=&quot;margin: 0px; line-height: 100%;&quot;&gt;&lt;span style=&quot;font-family:&#39;Arial&#39;; font-size:9.6pt; color:#191919; background-color:transparent;&quot;&gt;&lt;br&gt;&lt;/span&gt;&lt;/p&gt;&lt;p style=&quot;margin: 0px; line-height: 100%;&quot;&gt;&lt;span style=&quot;font-family:&#39;Arial&#39;; font-size:9.6pt; color:#191919; background-color:transparent;&quot;&gt;- Address: string&lt;/span&gt;&lt;/p&gt;&lt;p style=&quot;margin:0px;margin-left:4px;&quot;&gt;&lt;br&gt;&lt;/p&gt;&lt;p style=&quot;margin: 0px; line-height: 100%;&quot;&gt;&lt;span style=&quot;font-family:&#39;Arial&#39;; font-size:9.6pt; color:#191919; background-color:transparent;&quot;&gt;- Location: string&lt;/span&gt;&lt;/p&gt;&lt;hr size=&quot;1&quot;&gt;&lt;p style=&quot;margin: 0px; line-height: 100%;&quot;&gt;+Set address()&lt;/p&gt;&lt;p style=&quot;margin:0px;margin-left:4px;&quot;&gt;&lt;br&gt;&lt;/p&gt;&lt;p style=&quot;margin: 0px; line-height: 100%;&quot;&gt;&lt;span style=&quot;font-family:&#39;Arial&#39;; font-size:9.6pt; color:#191919; background-color:transparent;&quot;&gt;+Set locaion()&lt;/span&gt;&lt;/p&gt;" style="verticalAlign=top;align=left;overflow=fill;fontSize=12;fontFamily=Helvetica;html=1;whiteSpace=wrap;" vertex="1" parent="WIyWlLk6GJQsqaUBKTNV-1">
          <mxGeometry x="620" y="940" width="220" height="190" as="geometry" />
        </mxCell>
        <mxCell id="SPXnSW7W5VmlwohRPFWz-54" style="edgeStyle=orthogonalEdgeStyle;rounded=0;orthogonalLoop=1;jettySize=auto;html=1;exitX=0;exitY=0.5;exitDx=0;exitDy=0;entryX=1.016;entryY=0.588;entryDx=0;entryDy=0;entryPerimeter=0;endArrow=diamond;endFill=1;" edge="1" parent="WIyWlLk6GJQsqaUBKTNV-1" source="SPXnSW7W5VmlwohRPFWz-41" target="SPXnSW7W5VmlwohRPFWz-42">
          <mxGeometry relative="1" as="geometry" />
        </mxCell>
      </root>
    </mxGraphModel>
  </diagram>
</mxfile>
